<svg width="142" height="26" viewBox="0 0 142 26" fill="none" xmlns="http://www.w3.org/2000/svg">
<g clip-path="url(#clip0_1131_5310)">
<path d="M13.3156 17.3103C12.9571 17.2026 12.5837 17.1411 12.1879 17.1411C12.1805 17.1411 12.173 17.1411 12.173 17.1411C11.8967 17.1411 11.6278 17.1718 11.3664 17.2257C10.2686 17.4487 9.13348 17.1488 8.31199 16.3644C7.97592 16.0414 7.68467 15.6646 7.45316 15.2493C7.10962 14.6418 6.89305 13.9421 6.84077 13.2038C6.8333 13.0808 6.82584 12.9577 6.82584 12.8347C6.82584 12.8193 6.82584 12.7963 6.82584 12.7809C6.8333 11.9811 7.03494 11.2275 7.37101 10.5662C7.44569 10.4278 7.52037 10.2893 7.60999 10.1586C8.39414 8.9436 9.84295 8.4053 11.2171 8.75135C11.5158 8.82825 11.8295 8.8667 12.1581 8.8667C12.1655 8.8667 12.173 8.8667 12.1805 8.8667C12.7256 8.8667 13.2484 8.75135 13.7264 8.55141C15.22 7.91315 16.273 6.38285 16.2356 4.60647C16.1983 2.33794 14.3835 0.507733 12.1879 0.500043C10.5225 0.492353 9.08867 1.5228 8.46135 2.99927C8.25224 3.49912 8.12528 4.04511 8.11782 4.62185C8.11782 4.63723 8.11782 4.6603 8.11782 4.67568C8.11782 4.87562 8.13275 5.06787 8.15516 5.26012C8.31946 6.49051 7.87137 7.72859 6.91545 8.48989C6.89305 8.50527 6.87811 8.52065 6.85571 8.53603C6.33294 8.93591 5.66828 9.06664 5.03349 8.90515C4.71983 8.82825 4.39124 8.78211 4.05517 8.78211C4.04771 8.78211 4.04024 8.78211 4.04024 8.78211C3.43532 8.78211 2.85281 8.92822 2.33751 9.1743C0.955916 9.84332 0 11.289 0 12.9654C0 14.6649 0.985788 16.126 2.39726 16.7796C2.90509 17.0103 3.46519 17.1411 4.05517 17.1411C4.06264 17.1411 4.07011 17.1411 4.07758 17.1411C4.24188 17.1411 4.40617 17.1334 4.563 17.1103C6.03422 16.9258 7.48303 17.6332 8.19997 18.9636C8.20743 18.979 8.22237 19.002 8.22984 19.0174C8.39414 19.3327 8.42401 19.7018 8.31199 20.0479C8.18503 20.4477 8.11782 20.8784 8.11782 21.3244C8.11782 21.3321 8.11782 21.3398 8.11782 21.3398C8.11782 21.9396 8.24477 22.5163 8.46882 23.0316C9.10361 24.4927 10.5375 25.5154 12.1954 25.5C14.3686 25.4847 16.161 23.6852 16.2282 21.4474C16.2879 19.4942 15.0407 17.8332 13.3156 17.3103Z" fill="url(#paint0_linear_1131_5310)"/>
<path d="M33.6966 9.1743C33.1813 8.92822 32.6063 8.78211 31.9939 8.78211C31.9864 8.78211 31.9789 8.78211 31.9789 8.78211C31.6429 8.78211 31.3143 8.82825 31.0006 8.90515C30.3658 9.06664 29.7012 8.93591 29.1784 8.53603C29.156 8.52065 29.1411 8.50527 29.1187 8.48989C28.1627 7.72859 27.7147 6.49051 27.879 5.26012C27.9014 5.06787 27.9163 4.87562 27.9163 4.67568C27.9163 4.6603 27.9163 4.63723 27.9163 4.62185C27.9088 4.04511 27.7893 3.49912 27.5728 2.99927C26.9454 1.5228 25.5116 0.492353 23.8462 0.500043C21.6506 0.507733 19.8358 2.33794 19.7985 4.59878C19.7686 6.37516 20.8141 7.90546 22.3078 8.54372C22.7857 8.74366 23.3085 8.85901 23.8536 8.85901C23.8611 8.85901 23.8686 8.85901 23.8761 8.85901C24.1972 8.85901 24.5108 8.82056 24.817 8.74366C26.1912 8.4053 27.64 8.9436 28.4241 10.1509C28.5063 10.2816 28.5884 10.4201 28.6631 10.5585C29.0066 11.2198 29.2008 11.9734 29.2083 12.7732C29.2083 12.7886 29.2083 12.8116 29.2083 12.827C29.2083 12.9501 29.2008 13.0731 29.1933 13.1961C29.1411 13.9344 28.9245 14.6342 28.581 15.2417C28.3494 15.6569 28.0582 16.0337 27.7221 16.3567C26.9081 17.1411 25.7655 17.441 24.6677 17.218C24.4063 17.1641 24.1374 17.1334 23.8611 17.1334C23.8536 17.1334 23.8462 17.1334 23.8462 17.1334C23.4578 17.1334 23.077 17.1949 22.7185 17.3026C20.9934 17.8255 19.7462 19.4865 19.8059 21.4398C19.8732 23.6775 21.6655 25.477 23.8387 25.4923C25.4966 25.5 26.9305 24.485 27.5653 23.0239C27.7893 22.5087 27.9163 21.9396 27.9163 21.3321C27.9163 21.3244 27.9163 21.3167 27.9163 21.3167C27.9163 20.8707 27.8491 20.4478 27.7221 20.0402C27.6176 19.7018 27.64 19.325 27.8043 19.0097C27.8117 18.9944 27.8267 18.9713 27.8341 18.9559C28.5511 17.6255 29.9999 16.9104 31.4711 17.1026C31.6279 17.1257 31.7922 17.1334 31.9565 17.1334C31.964 17.1334 31.9715 17.1334 31.9789 17.1334C32.5689 17.1334 33.129 17.0027 33.6369 16.772C35.0483 16.1183 36.0341 14.6572 36.0341 12.9577C36.0341 11.289 35.0782 9.84332 33.6966 9.1743Z" fill="url(#paint1_linear_1131_5310)"/>
<path d="M18.0356 17.0559C20.2174 17.0559 21.9862 15.2346 21.9862 12.9879C21.9862 10.7412 20.2174 8.91992 18.0356 8.91992C15.8537 8.91992 14.085 10.7412 14.085 12.9879C14.085 15.2346 15.8537 17.0559 18.0356 17.0559Z" fill="url(#paint2_linear_1131_5310)"/>
<path d="M49.3634 16.1487L46.0102 6.63623H43.7324L48.2357 19.3631H50.5135L55.0167 6.63623H52.7389L49.3634 16.1487Z" fill="white"/>
<path d="M58.922 6.63623H56.7861V19.3631H58.922V6.63623Z" fill="white"/>
<path d="M65.7928 11.8885H64.3291C63.9258 11.8885 63.5822 11.7424 63.2835 11.4424C62.9923 11.1425 62.8429 10.7888 62.8429 10.3659C62.8429 9.95059 62.9923 9.58917 63.2835 9.28157C63.5748 8.98166 63.9258 8.82786 64.3291 8.82786H68.6904V6.63623H64.3291C63.3283 6.63623 62.477 6.99766 61.7675 7.7282C61.058 8.45875 60.707 9.3354 60.707 10.3659C60.707 11.3963 61.058 12.2806 61.7675 13.0112C62.477 13.7417 63.3283 14.1109 64.3291 14.1109H65.7928C66.2035 14.1109 66.5545 14.257 66.8458 14.5569C67.1371 14.8568 67.279 15.2182 67.279 15.6412C67.279 16.0641 67.1371 16.4255 66.8458 16.7254C66.5545 17.0253 66.2035 17.1714 65.7928 17.1714H60.707V19.3708H65.7928C66.7935 19.3708 67.6449 19.0093 68.3544 18.2788C69.0638 17.5483 69.4148 16.6716 69.4148 15.6412C69.4148 14.6107 69.0638 13.7264 68.3544 12.9958C67.6449 12.2576 66.7935 11.8885 65.7928 11.8885Z" fill="white"/>
<path d="M73.3292 6.63623H71.1934V19.3631H73.3292V6.63623Z" fill="white"/>
<path d="M84.3961 7.48981C83.4477 6.92076 82.4171 6.63623 81.2969 6.63623C80.1766 6.63623 79.146 6.92076 78.1976 7.48981C77.2492 8.05887 76.5023 8.83555 75.9422 9.81218C75.3896 10.7888 75.1133 11.85 75.1133 13.0035C75.1133 14.157 75.3896 15.2182 75.9422 16.1948C76.4949 17.1714 77.2492 17.9404 78.1976 18.5172C79.146 19.0862 80.1766 19.3708 81.2969 19.3708C82.4171 19.3708 83.4477 19.0862 84.3961 18.5172C85.3446 17.9481 86.0914 17.1714 86.6515 16.1948C87.2041 15.2182 87.4804 14.157 87.4804 13.0035C87.4804 11.85 87.2041 10.7888 86.6515 9.81218C86.0914 8.83555 85.3446 8.05887 84.3961 7.48981ZM84.1571 15.9487C83.3655 16.7639 82.4171 17.1638 81.2969 17.1638C80.1766 17.1638 79.2282 16.7562 78.4366 15.9487C77.645 15.1336 77.2566 14.157 77.2566 13.0035C77.2566 11.85 77.6524 10.8734 78.4366 10.0583C79.2282 9.24312 80.1766 8.84324 81.2969 8.84324C82.4171 8.84324 83.3655 9.25081 84.1571 10.0583C84.9488 10.8734 85.3371 11.85 85.3371 13.0035C85.3371 14.1493 84.9488 15.1336 84.1571 15.9487Z" fill="white"/>
<path d="M95.1433 15.0336L90.3189 6.63623H89.9978H87.959H87.832L95.1433 19.3631H97.2792V6.63623H95.1433V15.0336Z" fill="white"/>
<path d="M107.243 11.8885H102.068V6.63623H99.9316V19.3631H102.068V14.1109H107.243V19.3631H109.379V6.63623H107.243V11.8885Z" fill="white"/>
<path d="M115.667 6.63623L111.164 19.3631H113.442L116.795 9.85063L120.171 19.3631H122.448L117.945 6.63623H115.667Z" fill="white"/>
<path d="M128.983 8.83592C130.103 8.83592 131.052 9.24349 131.843 10.0509L133.344 8.50525C133.076 8.21303 132.777 7.95158 132.441 7.72088C132.112 7.49018 131.761 7.29024 131.388 7.12875C131.014 6.96726 130.626 6.84422 130.223 6.75964C129.819 6.67505 129.401 6.62891 128.976 6.62891C127.855 6.62891 126.825 6.91343 125.876 7.48249C124.928 8.05155 124.181 8.82823 123.621 9.80485C123.068 10.7815 122.792 11.8427 122.792 12.9962C122.792 14.1497 123.068 15.2109 123.621 16.1875C124.174 17.1641 124.928 17.9331 125.876 18.5099C126.825 19.0789 127.855 19.3634 128.976 19.3634C129.812 19.3634 130.604 19.202 131.358 18.8713C132.112 18.5406 132.769 18.0869 133.337 17.5102L131.836 15.9491C131.044 16.7642 130.096 17.1641 128.976 17.1641C127.855 17.1641 126.907 16.7566 126.115 15.9491C125.324 15.134 124.935 14.1574 124.935 13.0039C124.935 11.8504 125.331 10.8738 126.115 10.0586C126.914 9.24349 127.863 8.83592 128.983 8.83592Z" fill="white"/>
<path d="M142 6.63623H139.401L135.129 13.0035L136.436 14.9491L139.401 19.3631H142L137.728 13.0035L142 6.63623Z" fill="white"/>
<path d="M87.8535 19.3634H89.9894V14.6802C89.3098 16.1797 88.451 18.0176 87.8535 19.3172V19.3634Z" fill="white"/>
</g>
<defs>
<linearGradient id="paint0_linear_1131_5310" x1="7.99643" y1="-3.2866" x2="8.308" y2="26.0635" gradientUnits="userSpaceOnUse">
<stop stop-color="#FF60D2"/>
<stop offset="1" stop-color="#6D7CFF"/>
</linearGradient>
<linearGradient id="paint1_linear_1131_5310" x1="27.7098" y1="-3.49587" x2="28.0214" y2="25.8543" gradientUnits="userSpaceOnUse">
<stop stop-color="#FF60D2"/>
<stop offset="1" stop-color="#6D7CFF"/>
</linearGradient>
<linearGradient id="paint2_linear_1131_5310" x1="17.8679" y1="-3.39418" x2="18.1794" y2="25.956" gradientUnits="userSpaceOnUse">
<stop stop-color="#FF60D2"/>
<stop offset="1" stop-color="#6D7CFF"/>
</linearGradient>
<clipPath id="clip0_1131_5310">
<rect width="142" height="25" fill="white" transform="translate(0 0.5)"/>
</clipPath>
</defs>
</svg>
